<mxfile modified="2023-06-15T12:14:46.929Z" host="app.diagrams.net" agent="Mozilla/5.0 (Windows NT 10.0; Win64; x64) AppleWebKit/537.36 (KHTML, like Gecko) Chrome/96.0.4664.45 Safari/537.36" etag="ujAtw6uGC3yZcRn_SVaf" version="21.3.8" type="github">
  <diagram id="f106602c-feb2-e66a-4537-3a34d633f6aa" name="Page-1">
    <mxGraphModel dx="1709" dy="919" grid="1" gridSize="10" guides="1" tooltips="1" connect="1" arrows="1" fold="1" page="1" pageScale="1" pageWidth="1169" pageHeight="827" background="#FFE599" math="0" shadow="0">
      <root>
        <mxCell id="0" />
        <mxCell id="1" parent="0" />
        <mxCell id="818" value="&lt;font style=&quot;font-size: 24px;&quot;&gt;Priority Matrix Model MVC#3: API Data Flow&lt;/font&gt;" style="fillColor=#4DA1F5;strokeColor=none;shadow=1;gradientColor=none;fontSize=14;align=left;spacingLeft=50;fontColor=#ffffff;html=1;" parent="1" vertex="1">
          <mxGeometry x="40" y="10" width="650" height="50" as="geometry" />
        </mxCell>
        <mxCell id="991" value="" style="strokeColor=#dddddd;fillColor=#ffffff;shadow=1;strokeWidth=1;rounded=1;absoluteArcSize=1;arcSize=2;fontSize=11;fontColor=#9E9E9E;align=center;html=1;container=0;" parent="1" vertex="1">
          <mxGeometry x="170" y="100.5" width="250" height="135" as="geometry" />
        </mxCell>
        <mxCell id="AcqPu3Vye6vO09F_giCF-1003" value="" style="group" parent="1" vertex="1" connectable="0">
          <mxGeometry x="40" y="354.5" width="130" height="221" as="geometry" />
        </mxCell>
        <mxCell id="AcqPu3Vye6vO09F_giCF-1007" value="" style="group" parent="AcqPu3Vye6vO09F_giCF-1003" vertex="1" connectable="0">
          <mxGeometry width="130" height="221" as="geometry" />
        </mxCell>
        <mxCell id="997" value="&lt;h2&gt;&lt;font style=&quot;font-size: 24px;&quot;&gt;COW&lt;/font&gt;&lt;/h2&gt;" style="rounded=1;absoluteArcSize=1;arcSize=2;html=1;strokeColor=none;gradientColor=none;shadow=0;dashed=0;fontSize=12;fontColor=#9E9E9E;align=left;verticalAlign=top;spacing=10;spacingTop=-4;fillColor=#F1F8E9;" parent="AcqPu3Vye6vO09F_giCF-1007" vertex="1">
          <mxGeometry width="130" height="221" as="geometry" />
        </mxCell>
        <mxCell id="AcqPu3Vye6vO09F_giCF-1001" value="" style="verticalLabelPosition=bottom;html=1;verticalAlign=top;align=center;strokeColor=none;fillColor=#00BEF2;shape=mxgraph.azure.website_generic;pointerEvents=1;" parent="AcqPu3Vye6vO09F_giCF-1007" vertex="1">
          <mxGeometry x="15" y="76.86956521739131" width="100" height="86.47826086956522" as="geometry" />
        </mxCell>
        <mxCell id="AcqPu3Vye6vO09F_giCF-1005" value="Cloud" style="html=1;whiteSpace=wrap;strokeColor=none;fillColor=#0079D6;labelPosition=center;verticalLabelPosition=middle;verticalAlign=top;align=center;fontSize=12;outlineConnect=0;spacingTop=-6;fontColor=#FFFFFF;sketch=0;shape=mxgraph.sitemap.cloud;" parent="AcqPu3Vye6vO09F_giCF-1007" vertex="1">
          <mxGeometry y="192.17" width="40" height="28.82608695652174" as="geometry" />
        </mxCell>
        <mxCell id="AcqPu3Vye6vO09F_giCF-1015" value="" style="group" parent="1" vertex="1" connectable="0">
          <mxGeometry x="1000" y="363.5" width="130" height="221" as="geometry" />
        </mxCell>
        <mxCell id="AcqPu3Vye6vO09F_giCF-1010" value="&lt;h2&gt;&lt;b style=&quot;color: rgb(113, 113, 113);&quot;&gt;&lt;font style=&quot;font-size: 24px;&quot;&gt;MODEL&lt;/font&gt;&lt;/b&gt;&lt;br&gt;&lt;/h2&gt;" style="rounded=1;absoluteArcSize=1;arcSize=2;html=1;strokeColor=none;gradientColor=none;shadow=0;dashed=0;fontSize=12;fontColor=#9E9E9E;align=left;verticalAlign=top;spacing=10;spacingTop=-4;fillColor=#F1F8E9;" parent="AcqPu3Vye6vO09F_giCF-1015" vertex="1">
          <mxGeometry width="130" height="221" as="geometry" />
        </mxCell>
        <mxCell id="AcqPu3Vye6vO09F_giCF-1002" value="" style="sketch=0;outlineConnect=0;fontColor=#232F3E;gradientColor=none;fillColor=#067F68;strokeColor=none;dashed=0;verticalLabelPosition=bottom;verticalAlign=top;align=center;html=1;fontSize=12;fontStyle=0;aspect=fixed;pointerEvents=1;shape=mxgraph.aws4.sagemaker_model;" parent="AcqPu3Vye6vO09F_giCF-1015" vertex="1">
          <mxGeometry x="26" y="71.5" width="78" height="78" as="geometry" />
        </mxCell>
        <mxCell id="AcqPu3Vye6vO09F_giCF-1027" value="Cloud" style="html=1;whiteSpace=wrap;strokeColor=none;fillColor=#0079D6;labelPosition=center;verticalLabelPosition=middle;verticalAlign=top;align=center;fontSize=12;outlineConnect=0;spacingTop=-6;fontColor=#FFFFFF;sketch=0;shape=mxgraph.sitemap.cloud;" parent="AcqPu3Vye6vO09F_giCF-1015" vertex="1">
          <mxGeometry y="191" width="40" height="30" as="geometry" />
        </mxCell>
        <mxCell id="AcqPu3Vye6vO09F_giCF-1018" value="" style="group;fontColor=#FFFFFF;" parent="1" vertex="1" connectable="0">
          <mxGeometry x="470" y="354.5" width="230" height="230" as="geometry" />
        </mxCell>
        <mxCell id="14" value="&lt;b&gt;&lt;font style=&quot;font-size: 24px;&quot;&gt;API-M&lt;/font&gt;&lt;/b&gt;" style="fillColor=#F6F6F6;strokeColor=none;shadow=0;gradientColor=none;fontSize=14;align=left;spacing=10;fontColor=#717171;9E9E9E;verticalAlign=top;spacingTop=-4;fontStyle=0;spacingLeft=40;html=1;" parent="AcqPu3Vye6vO09F_giCF-1018" vertex="1">
          <mxGeometry width="230" height="230" as="geometry" />
        </mxCell>
        <mxCell id="AcqPu3Vye6vO09F_giCF-1016" value="" style="sketch=0;html=1;dashed=0;whitespace=wrap;fillColor=#2875E2;strokeColor=#ffffff;points=[[0.005,0.63,0],[0.1,0.2,0],[0.9,0.2,0],[0.5,0,0],[0.995,0.63,0],[0.72,0.99,0],[0.5,1,0],[0.28,0.99,0]];verticalLabelPosition=bottom;align=center;verticalAlign=top;shape=mxgraph.kubernetes.icon;prIcon=api" parent="AcqPu3Vye6vO09F_giCF-1018" vertex="1">
          <mxGeometry x="10" y="5.5" width="30" height="40" as="geometry" />
        </mxCell>
        <mxCell id="AcqPu3Vye6vO09F_giCF-1017" value="Cloud" style="html=1;whiteSpace=wrap;strokeColor=none;fillColor=#0079D6;labelPosition=center;verticalLabelPosition=middle;verticalAlign=top;align=center;fontSize=12;outlineConnect=0;spacingTop=-6;fontColor=#FFFFFF;sketch=0;shape=mxgraph.sitemap.cloud;" parent="AcqPu3Vye6vO09F_giCF-1018" vertex="1">
          <mxGeometry y="200" width="40" height="30" as="geometry" />
        </mxCell>
        <mxCell id="AcqPu3Vye6vO09F_giCF-1046" value="" style="sketch=0;outlineConnect=0;fontColor=#232F3E;gradientColor=none;fillColor=#067F68;strokeColor=none;dashed=0;verticalLabelPosition=bottom;verticalAlign=top;align=center;html=1;fontSize=12;fontStyle=0;aspect=fixed;shape=mxgraph.aws4.mainframe_modernization_compiler;" parent="AcqPu3Vye6vO09F_giCF-1018" vertex="1">
          <mxGeometry x="70" y="85.5" width="78" height="78" as="geometry" />
        </mxCell>
        <mxCell id="AcqPu3Vye6vO09F_giCF-1050" value="&lt;span style=&quot;&quot;&gt;Transform data to fit for Model&lt;/span&gt;" style="text;html=1;strokeColor=none;fillColor=none;align=center;verticalAlign=middle;whiteSpace=wrap;rounded=0;fontColor=#FFFFFF;labelBackgroundColor=#0000FF;" parent="AcqPu3Vye6vO09F_giCF-1018" vertex="1">
          <mxGeometry x="16.5" y="163.5" width="185" height="30" as="geometry" />
        </mxCell>
        <mxCell id="AcqPu3Vye6vO09F_giCF-1021" style="edgeStyle=elbowEdgeStyle;rounded=0;elbow=vertical;html=1;labelBackgroundColor=none;startFill=1;endArrow=blockThin;endFill=1;jettySize=auto;orthogonalLoop=1;strokeColor=#4284F3;strokeWidth=3;fontSize=12;fontColor=#000000;align=left;dashed=0;exitX=0.25;exitY=0;exitDx=0;exitDy=0;entryX=0.5;entryY=1;entryDx=0;entryDy=0;" parent="1" source="14" target="991" edge="1">
          <mxGeometry relative="1" as="geometry">
            <mxPoint x="180" y="420" as="sourcePoint" />
            <mxPoint x="480" y="422" as="targetPoint" />
            <Array as="points">
              <mxPoint x="440" y="280" />
              <mxPoint x="485" y="360" />
              <mxPoint x="325" y="372" />
              <mxPoint x="315" y="412" />
              <mxPoint x="315" y="362" />
            </Array>
          </mxGeometry>
        </mxCell>
        <mxCell id="AcqPu3Vye6vO09F_giCF-1056" value="&lt;font style=&quot;font-size: 12px;&quot;&gt;2. Request to get History Loan Data&lt;/font&gt;" style="edgeLabel;html=1;align=center;verticalAlign=middle;resizable=0;points=[];fontSize=12;" parent="AcqPu3Vye6vO09F_giCF-1021" vertex="1" connectable="0">
          <mxGeometry x="-0.0335" y="-2" relative="1" as="geometry">
            <mxPoint x="-27" y="17" as="offset" />
          </mxGeometry>
        </mxCell>
        <mxCell id="AcqPu3Vye6vO09F_giCF-1023" value="" style="sketch=0;outlineConnect=0;fontColor=#232F3E;gradientColor=none;fillColor=#3F8624;strokeColor=none;dashed=0;verticalLabelPosition=bottom;verticalAlign=top;align=center;html=1;fontSize=12;fontStyle=0;aspect=fixed;pointerEvents=1;shape=mxgraph.aws4.data_set;" parent="1" vertex="1">
          <mxGeometry x="190" y="148" width="32.31" height="40" as="geometry" />
        </mxCell>
        <mxCell id="992" value="&lt;b style=&quot;color: rgb(113, 113, 113); font-size: 14px;&quot;&gt;&lt;font style=&quot;font-size: 24px;&quot;&gt;LOAN domain&lt;/font&gt;&lt;/b&gt;&lt;br&gt;&lt;hr&gt;&lt;font style=&quot;font-size: 14px;&quot;&gt;History loan data&lt;/font&gt;" style="dashed=0;connectable=1;html=1;fillColor=#5184F3;strokeColor=none;shape=mxgraph.gcp2.hexIcon;prIcon=app_engine;part=1;labelPosition=right;verticalLabelPosition=middle;align=left;verticalAlign=top;spacingLeft=5;fontColor=#999999;fontSize=12;spacingTop=-8;movable=1;resizable=1;rotatable=1;deletable=1;editable=1;locked=0;" parent="1" vertex="1">
          <mxGeometry x="178.31" y="100.5" width="44" height="39" as="geometry">
            <mxPoint x="5" y="7" as="offset" />
          </mxGeometry>
        </mxCell>
        <mxCell id="AcqPu3Vye6vO09F_giCF-1026" value="Cloud" style="html=1;whiteSpace=wrap;strokeColor=none;fillColor=#0079D6;labelPosition=center;verticalLabelPosition=middle;verticalAlign=top;align=center;fontSize=12;outlineConnect=0;spacingTop=-6;fontColor=#FFFFFF;sketch=0;shape=mxgraph.sitemap.cloud;" parent="1" vertex="1">
          <mxGeometry x="170" y="205.5" width="40" height="30" as="geometry" />
        </mxCell>
        <mxCell id="AcqPu3Vye6vO09F_giCF-1029" value="" style="strokeColor=#dddddd;fillColor=#ffffff;shadow=1;strokeWidth=1;rounded=1;absoluteArcSize=1;arcSize=2;fontSize=11;fontColor=#9E9E9E;align=center;html=1;container=0;" parent="1" vertex="1">
          <mxGeometry x="800" y="100.5" width="250" height="135" as="geometry" />
        </mxCell>
        <mxCell id="AcqPu3Vye6vO09F_giCF-1031" value="&lt;b style=&quot;color: rgb(113, 113, 113); font-size: 14px;&quot;&gt;&lt;font style=&quot;font-size: 24px;&quot;&gt;APP domain&lt;/font&gt;&lt;/b&gt;&lt;br&gt;&lt;hr&gt;&lt;font style=&quot;font-size: 14px;&quot;&gt;Date Diff Loan 1&lt;br&gt;Date Diff Loan 2&lt;br&gt;&lt;/font&gt;" style="dashed=0;connectable=1;html=1;fillColor=#5184F3;strokeColor=none;shape=mxgraph.gcp2.hexIcon;prIcon=app_engine;part=1;labelPosition=right;verticalLabelPosition=middle;align=left;verticalAlign=top;spacingLeft=5;fontColor=#999999;fontSize=12;spacingTop=-8;movable=1;resizable=1;rotatable=1;deletable=1;editable=1;locked=0;" parent="1" vertex="1">
          <mxGeometry x="808.31" y="100.5" width="44" height="39" as="geometry">
            <mxPoint x="5" y="7" as="offset" />
          </mxGeometry>
        </mxCell>
        <mxCell id="AcqPu3Vye6vO09F_giCF-1032" value="Cloud" style="html=1;whiteSpace=wrap;strokeColor=none;fillColor=#0079D6;labelPosition=center;verticalLabelPosition=middle;verticalAlign=top;align=center;fontSize=12;outlineConnect=0;spacingTop=-6;fontColor=#FFFFFF;sketch=0;shape=mxgraph.sitemap.cloud;" parent="1" vertex="1">
          <mxGeometry x="800" y="205.5" width="40" height="30" as="geometry" />
        </mxCell>
        <mxCell id="AcqPu3Vye6vO09F_giCF-1033" value="" style="html=1;verticalLabelPosition=bottom;align=center;labelBackgroundColor=#ffffff;verticalAlign=top;strokeWidth=2;strokeColor=#0080F0;shadow=0;dashed=0;shape=mxgraph.ios7.icons.calendar;" parent="1" vertex="1">
          <mxGeometry x="820" y="148" width="30" height="30" as="geometry" />
        </mxCell>
        <mxCell id="AcqPu3Vye6vO09F_giCF-1034" style="edgeStyle=elbowEdgeStyle;rounded=0;elbow=vertical;html=1;labelBackgroundColor=none;startFill=1;startSize=4;endArrow=blockThin;endFill=1;endSize=4;jettySize=auto;orthogonalLoop=1;strokeColor=#4284F3;strokeWidth=3;fontSize=12;fontColor=#000000;align=left;dashed=0;entryX=0.5;entryY=1;entryDx=0;entryDy=0;exitX=0.75;exitY=0;exitDx=0;exitDy=0;" parent="1" source="14" target="AcqPu3Vye6vO09F_giCF-1029" edge="1">
          <mxGeometry relative="1" as="geometry">
            <mxPoint x="643" y="360" as="sourcePoint" />
            <mxPoint x="740" y="130" as="targetPoint" />
            <Array as="points">
              <mxPoint x="780" y="280" />
              <mxPoint x="495" y="370" />
              <mxPoint x="335" y="382" />
              <mxPoint x="325" y="422" />
              <mxPoint x="325" y="372" />
            </Array>
          </mxGeometry>
        </mxCell>
        <mxCell id="AcqPu3Vye6vO09F_giCF-1035" value="&lt;font style=&quot;font-size: 12px;&quot;&gt;2. Request to Loan 1&amp;amp;2 Date Diff&lt;/font&gt;" style="edgeLabel;html=1;align=center;verticalAlign=middle;resizable=0;points=[];fontSize=12;" parent="AcqPu3Vye6vO09F_giCF-1034" vertex="1" connectable="0">
          <mxGeometry x="-0.0335" y="-2" relative="1" as="geometry">
            <mxPoint x="-2" y="18" as="offset" />
          </mxGeometry>
        </mxCell>
        <mxCell id="AcqPu3Vye6vO09F_giCF-1038" style="edgeStyle=elbowEdgeStyle;rounded=0;elbow=vertical;html=1;labelBackgroundColor=none;startFill=1;startSize=4;endArrow=blockThin;endFill=1;endSize=4;jettySize=auto;orthogonalLoop=1;strokeColor=#2D7600;strokeWidth=3;fontSize=12;fontColor=#000000;align=left;dashed=0;entryX=0.626;entryY=-0.001;entryDx=0;entryDy=0;fillColor=#60a917;entryPerimeter=0;exitX=0;exitY=0.5;exitDx=0;exitDy=0;" parent="1" source="AcqPu3Vye6vO09F_giCF-1029" edge="1">
          <mxGeometry relative="1" as="geometry">
            <mxPoint x="816" y="168" as="sourcePoint" />
            <mxPoint x="629.9800000000002" y="354.27" as="targetPoint" />
            <Array as="points">
              <mxPoint x="706" y="168" />
              <mxPoint x="521" y="380" />
              <mxPoint x="361" y="392" />
              <mxPoint x="351" y="432" />
              <mxPoint x="351" y="382" />
            </Array>
          </mxGeometry>
        </mxCell>
        <mxCell id="AcqPu3Vye6vO09F_giCF-1039" value="&lt;font style=&quot;font-size: 12px;&quot;&gt;3. Response Loan(s) Date Diff&lt;/font&gt;" style="edgeLabel;html=1;align=center;verticalAlign=middle;resizable=0;points=[];fontSize=12;" parent="AcqPu3Vye6vO09F_giCF-1038" vertex="1" connectable="0">
          <mxGeometry x="-0.0335" y="-2" relative="1" as="geometry">
            <mxPoint x="79" y="-18" as="offset" />
          </mxGeometry>
        </mxCell>
        <mxCell id="AcqPu3Vye6vO09F_giCF-1040" style="edgeStyle=elbowEdgeStyle;rounded=0;elbow=vertical;html=1;labelBackgroundColor=none;startFill=1;startSize=4;endArrow=blockThin;endFill=1;endSize=4;jettySize=auto;orthogonalLoop=1;strokeColor=#4284F3;strokeWidth=3;fontSize=12;fontColor=#000000;align=left;dashed=0;exitX=1;exitY=0.25;exitDx=0;exitDy=0;entryX=0;entryY=0.259;entryDx=0;entryDy=0;entryPerimeter=0;" parent="1" edge="1">
          <mxGeometry relative="1" as="geometry">
            <mxPoint x="170" y="463" as="sourcePoint" />
            <mxPoint x="470" y="465.06999999999994" as="targetPoint" />
            <Array as="points">
              <mxPoint x="215" y="465" />
              <mxPoint x="475" y="403" />
              <mxPoint x="315" y="415" />
              <mxPoint x="305" y="455" />
              <mxPoint x="305" y="405" />
            </Array>
          </mxGeometry>
        </mxCell>
        <mxCell id="AcqPu3Vye6vO09F_giCF-1055" value="&lt;font style=&quot;font-size: 12px;&quot;&gt;1. COW Request to API-M&lt;/font&gt;" style="edgeLabel;html=1;align=center;verticalAlign=middle;resizable=0;points=[];fontSize=12;" parent="AcqPu3Vye6vO09F_giCF-1040" vertex="1" connectable="0">
          <mxGeometry x="-0.0335" y="-2" relative="1" as="geometry">
            <mxPoint y="-29" as="offset" />
          </mxGeometry>
        </mxCell>
        <mxCell id="AcqPu3Vye6vO09F_giCF-1042" style="edgeStyle=elbowEdgeStyle;rounded=0;elbow=vertical;html=1;labelBackgroundColor=none;startFill=1;startSize=4;endArrow=blockThin;endFill=1;endSize=4;jettySize=auto;orthogonalLoop=1;strokeColor=#2D7600;strokeWidth=3;fontSize=12;fontColor=#000000;align=left;dashed=0;entryX=0.452;entryY=-0.002;entryDx=0;entryDy=0;fillColor=#60a917;entryPerimeter=0;" parent="1" edge="1">
          <mxGeometry relative="1" as="geometry">
            <mxPoint x="420" y="168" as="sourcePoint" />
            <mxPoint x="540.96" y="354.0400000000002" as="targetPoint" />
            <Array as="points">
              <mxPoint x="467" y="168" />
              <mxPoint x="457" y="130" />
              <mxPoint x="462" y="350" />
              <mxPoint x="302" y="362" />
              <mxPoint x="292" y="402" />
              <mxPoint x="292" y="352" />
            </Array>
          </mxGeometry>
        </mxCell>
        <mxCell id="AcqPu3Vye6vO09F_giCF-1043" value="&lt;font style=&quot;font-size: 12px;&quot;&gt;3. Response Loan List&lt;/font&gt;" style="edgeLabel;html=1;align=center;verticalAlign=middle;resizable=0;points=[];fontSize=12;" parent="AcqPu3Vye6vO09F_giCF-1042" vertex="1" connectable="0">
          <mxGeometry x="-0.0335" y="-2" relative="1" as="geometry">
            <mxPoint x="-53" y="-45" as="offset" />
          </mxGeometry>
        </mxCell>
        <mxCell id="AcqPu3Vye6vO09F_giCF-1051" style="edgeStyle=elbowEdgeStyle;rounded=0;elbow=vertical;html=1;labelBackgroundColor=none;startFill=1;startSize=4;endArrow=blockThin;endFill=1;endSize=4;jettySize=auto;orthogonalLoop=1;strokeColor=#4284F3;strokeWidth=3;fontSize=12;fontColor=#000000;align=left;dashed=0;entryX=-0.013;entryY=0.254;entryDx=0;entryDy=0;entryPerimeter=0;" parent="1" source="AcqPu3Vye6vO09F_giCF-1046" edge="1">
          <mxGeometry relative="1" as="geometry">
            <mxPoint x="579" y="497.13954436342215" as="sourcePoint" />
            <mxPoint x="998.3100000000004" y="468.634" as="targetPoint" />
            <Array as="points">
              <mxPoint x="790" y="469" />
              <mxPoint x="505" y="429" />
              <mxPoint x="345" y="441" />
              <mxPoint x="335" y="481" />
              <mxPoint x="335" y="431" />
            </Array>
          </mxGeometry>
        </mxCell>
        <mxCell id="AcqPu3Vye6vO09F_giCF-1052" value="&lt;font style=&quot;font-size: 12px;&quot;&gt;4. Request with appropriate data&lt;/font&gt;" style="edgeLabel;html=1;align=center;verticalAlign=middle;resizable=0;points=[];fontSize=12;" parent="AcqPu3Vye6vO09F_giCF-1051" vertex="1" connectable="0">
          <mxGeometry x="-0.0335" y="-2" relative="1" as="geometry">
            <mxPoint x="52" y="-21" as="offset" />
          </mxGeometry>
        </mxCell>
        <mxCell id="AcqPu3Vye6vO09F_giCF-1053" style="edgeStyle=elbowEdgeStyle;rounded=0;elbow=vertical;html=1;labelBackgroundColor=none;startFill=1;startSize=4;endArrow=blockThin;endFill=1;endSize=4;jettySize=auto;orthogonalLoop=1;strokeColor=#2D7600;strokeWidth=3;fontSize=12;fontColor=#000000;align=left;dashed=0;entryX=1.002;entryY=0.703;entryDx=0;entryDy=0;fillColor=#60a917;entryPerimeter=0;exitX=-0.005;exitY=0.69;exitDx=0;exitDy=0;exitPerimeter=0;" parent="1" edge="1">
          <mxGeometry relative="1" as="geometry">
            <mxPoint x="999.3499999999999" y="485.99" as="sourcePoint" />
            <mxPoint x="700.46" y="486.19000000000005" as="targetPoint" />
            <Array as="points">
              <mxPoint x="840" y="486" />
              <mxPoint x="641" y="692" />
              <mxPoint x="481" y="704" />
              <mxPoint x="471" y="744" />
              <mxPoint x="471" y="694" />
            </Array>
          </mxGeometry>
        </mxCell>
        <mxCell id="AcqPu3Vye6vO09F_giCF-1054" value="&lt;font style=&quot;font-size: 12px;&quot;&gt;5. Reponse Priority Score&lt;/font&gt;" style="edgeLabel;html=1;align=center;verticalAlign=middle;resizable=0;points=[];fontSize=12;" parent="AcqPu3Vye6vO09F_giCF-1053" vertex="1" connectable="0">
          <mxGeometry x="-0.0335" y="-2" relative="1" as="geometry">
            <mxPoint x="5" y="19" as="offset" />
          </mxGeometry>
        </mxCell>
        <mxCell id="AcqPu3Vye6vO09F_giCF-1057" style="edgeStyle=elbowEdgeStyle;rounded=0;elbow=vertical;html=1;labelBackgroundColor=none;startFill=1;startSize=4;endArrow=blockThin;endFill=1;endSize=4;jettySize=auto;orthogonalLoop=1;strokeColor=#2D7600;strokeWidth=3;fontSize=12;fontColor=#000000;align=left;dashed=0;entryX=1.002;entryY=0.703;entryDx=0;entryDy=0;fillColor=#60a917;entryPerimeter=0;exitX=-0.005;exitY=0.69;exitDx=0;exitDy=0;exitPerimeter=0;" parent="1" edge="1">
          <mxGeometry relative="1" as="geometry">
            <mxPoint x="470" y="481" as="sourcePoint" />
            <mxPoint x="171" y="481" as="targetPoint" />
            <Array as="points">
              <mxPoint x="311" y="481" />
              <mxPoint x="112" y="687" />
              <mxPoint x="-48" y="699" />
              <mxPoint x="-58" y="739" />
              <mxPoint x="-58" y="689" />
            </Array>
          </mxGeometry>
        </mxCell>
        <mxCell id="AcqPu3Vye6vO09F_giCF-1058" value="&lt;font style=&quot;font-size: 12px;&quot;&gt;6. Reponse Priority Score&lt;/font&gt;" style="edgeLabel;html=1;align=center;verticalAlign=middle;resizable=0;points=[];fontSize=12;" parent="AcqPu3Vye6vO09F_giCF-1057" vertex="1" connectable="0">
          <mxGeometry x="-0.0335" y="-2" relative="1" as="geometry">
            <mxPoint x="5" y="25" as="offset" />
          </mxGeometry>
        </mxCell>
        <mxCell id="AcqPu3Vye6vO09F_giCF-1059" value="" style="shape=process;whiteSpace=wrap;html=1;backgroundOutline=1;" parent="1" vertex="1">
          <mxGeometry x="515" y="720" width="140" height="80" as="geometry" />
        </mxCell>
        <mxCell id="AcqPu3Vye6vO09F_giCF-1060" value="7. Sorting Work List" style="edgeStyle=orthogonalEdgeStyle;rounded=0;orthogonalLoop=1;jettySize=auto;html=1;fontSize=12;strokeWidth=3;" parent="1" source="997" target="AcqPu3Vye6vO09F_giCF-1059" edge="1">
          <mxGeometry x="0.2767" y="30" relative="1" as="geometry">
            <Array as="points">
              <mxPoint x="105" y="760" />
            </Array>
            <mxPoint x="1" as="offset" />
          </mxGeometry>
        </mxCell>
        <mxCell id="AcqPu3Vye6vO09F_giCF-1066" value="" style="outlineConnect=0;dashed=0;verticalLabelPosition=bottom;verticalAlign=top;align=center;html=1;shape=mxgraph.aws3.classic_load_balancer;fillColor=#F58536;gradientColor=none;" parent="1" vertex="1">
          <mxGeometry x="555.25" y="732" width="59.5" height="56" as="geometry" />
        </mxCell>
        <mxCell id="AcqPu3Vye6vO09F_giCF-1068" value="End" style="ellipse;html=1;shape=endState;fillColor=#000000;strokeColor=#ff0000;fontColor=#FFFFFF;" parent="1" vertex="1">
          <mxGeometry x="200" y="710" width="40" height="38" as="geometry" />
        </mxCell>
        <mxCell id="AcqPu3Vye6vO09F_giCF-1069" value="Start" style="ellipse;html=1;shape=endState;fillColor=#000000;strokeColor=#ff0000;fontColor=#FFFFFF;" parent="1" vertex="1">
          <mxGeometry x="200" y="414" width="40" height="38" as="geometry" />
        </mxCell>
      </root>
    </mxGraphModel>
  </diagram>
</mxfile>
